<mxfile host="app.diagrams.net" modified="2022-04-08T23:43:16.595Z" agent="5.0 (X11)" etag="0xXeMWDMComhTzMVARFD" version="17.4.1" type="github">
  <diagram id="R2lEEEUBdFMjLlhIrx00" name="Page-1">
    <mxGraphModel dx="875" dy="526" grid="1" gridSize="10" guides="1" tooltips="1" connect="1" arrows="1" fold="1" page="1" pageScale="1" pageWidth="850" pageHeight="1100" math="0" shadow="0" extFonts="Permanent Marker^https://fonts.googleapis.com/css?family=Permanent+Marker">
      <root>
        <mxCell id="0" />
        <mxCell id="1" parent="0" />
        <mxCell id="y4bybNNxTWJMV2I0ARmf-2" value="Bebê" style="whiteSpace=wrap;html=1;align=center;rounded=0;sketch=0;" vertex="1" parent="1">
          <mxGeometry x="130" y="250" width="130" height="40" as="geometry" />
        </mxCell>
        <mxCell id="y4bybNNxTWJMV2I0ARmf-5" value="Nome" style="ellipse;whiteSpace=wrap;html=1;align=center;rounded=0;sketch=0;fillColor=#7EA6E0;" vertex="1" parent="1">
          <mxGeometry y="160" width="100" height="40" as="geometry" />
        </mxCell>
        <mxCell id="y4bybNNxTWJMV2I0ARmf-6" value="Data Nascimento" style="ellipse;whiteSpace=wrap;html=1;align=center;rounded=0;sketch=0;" vertex="1" parent="1">
          <mxGeometry x="140" y="140" width="100" height="40" as="geometry" />
        </mxCell>
        <mxCell id="y4bybNNxTWJMV2I0ARmf-7" value="1ª Pesagem" style="ellipse;whiteSpace=wrap;html=1;align=center;rounded=0;sketch=0;" vertex="1" parent="1">
          <mxGeometry x="10" y="240" width="100" height="40" as="geometry" />
        </mxCell>
        <mxCell id="y4bybNNxTWJMV2I0ARmf-8" value="Altura" style="ellipse;whiteSpace=wrap;html=1;align=center;rounded=0;sketch=0;" vertex="1" parent="1">
          <mxGeometry x="10" y="300" width="100" height="40" as="geometry" />
        </mxCell>
        <mxCell id="y4bybNNxTWJMV2I0ARmf-12" value="" style="endArrow=none;html=1;rounded=0;sketch=0;curved=0;exitX=0;exitY=0;exitDx=0;exitDy=0;entryX=1;entryY=1;entryDx=0;entryDy=0;" edge="1" parent="1" source="y4bybNNxTWJMV2I0ARmf-2" target="y4bybNNxTWJMV2I0ARmf-5">
          <mxGeometry relative="1" as="geometry">
            <mxPoint x="340" y="270" as="sourcePoint" />
            <mxPoint x="500" y="270" as="targetPoint" />
          </mxGeometry>
        </mxCell>
        <mxCell id="y4bybNNxTWJMV2I0ARmf-14" value="" style="endArrow=none;html=1;rounded=0;sketch=0;curved=0;exitX=1;exitY=1;exitDx=0;exitDy=0;entryX=0.25;entryY=0;entryDx=0;entryDy=0;" edge="1" parent="1" source="y4bybNNxTWJMV2I0ARmf-54" target="y4bybNNxTWJMV2I0ARmf-2">
          <mxGeometry relative="1" as="geometry">
            <mxPoint x="96" y="131.25" as="sourcePoint" />
            <mxPoint x="500" y="260" as="targetPoint" />
          </mxGeometry>
        </mxCell>
        <mxCell id="y4bybNNxTWJMV2I0ARmf-15" value="" style="endArrow=none;html=1;rounded=0;sketch=0;curved=0;exitX=0.5;exitY=1;exitDx=0;exitDy=0;entryX=0.5;entryY=0;entryDx=0;entryDy=0;" edge="1" parent="1" source="y4bybNNxTWJMV2I0ARmf-6" target="y4bybNNxTWJMV2I0ARmf-2">
          <mxGeometry relative="1" as="geometry">
            <mxPoint x="350" y="270" as="sourcePoint" />
            <mxPoint x="510" y="270" as="targetPoint" />
          </mxGeometry>
        </mxCell>
        <mxCell id="y4bybNNxTWJMV2I0ARmf-16" value="" style="endArrow=none;html=1;rounded=0;sketch=0;curved=0;exitX=0;exitY=1;exitDx=0;exitDy=0;entryX=0.75;entryY=0;entryDx=0;entryDy=0;" edge="1" parent="1" source="y4bybNNxTWJMV2I0ARmf-51" target="y4bybNNxTWJMV2I0ARmf-2">
          <mxGeometry relative="1" as="geometry">
            <mxPoint x="280" y="220" as="sourcePoint" />
            <mxPoint x="520" y="280" as="targetPoint" />
          </mxGeometry>
        </mxCell>
        <mxCell id="y4bybNNxTWJMV2I0ARmf-17" value="" style="endArrow=none;html=1;rounded=0;sketch=0;curved=0;exitX=1;exitY=0.5;exitDx=0;exitDy=0;entryX=0;entryY=0.5;entryDx=0;entryDy=0;" edge="1" parent="1" source="y4bybNNxTWJMV2I0ARmf-7" target="y4bybNNxTWJMV2I0ARmf-2">
          <mxGeometry relative="1" as="geometry">
            <mxPoint x="370" y="290" as="sourcePoint" />
            <mxPoint x="530" y="290" as="targetPoint" />
          </mxGeometry>
        </mxCell>
        <mxCell id="y4bybNNxTWJMV2I0ARmf-18" value="" style="endArrow=none;html=1;rounded=0;sketch=0;curved=0;entryX=1;entryY=0.5;entryDx=0;entryDy=0;exitX=0.315;exitY=1.025;exitDx=0;exitDy=0;exitPerimeter=0;" edge="1" parent="1" source="y4bybNNxTWJMV2I0ARmf-2" target="y4bybNNxTWJMV2I0ARmf-8">
          <mxGeometry relative="1" as="geometry">
            <mxPoint x="380" y="300" as="sourcePoint" />
            <mxPoint x="540" y="300" as="targetPoint" />
          </mxGeometry>
        </mxCell>
        <mxCell id="y4bybNNxTWJMV2I0ARmf-19" value="&lt;div&gt;Mãe&lt;/div&gt;&lt;div&gt;recem-nascido&lt;br&gt;&lt;/div&gt;" style="whiteSpace=wrap;html=1;align=center;rounded=0;sketch=0;" vertex="1" parent="1">
          <mxGeometry x="330" y="360" width="100" height="40" as="geometry" />
        </mxCell>
        <mxCell id="y4bybNNxTWJMV2I0ARmf-23" value="Endereço" style="ellipse;whiteSpace=wrap;html=1;align=center;rounded=0;sketch=0;" vertex="1" parent="1">
          <mxGeometry x="170" y="350" width="100" height="40" as="geometry" />
        </mxCell>
        <mxCell id="y4bybNNxTWJMV2I0ARmf-24" value="Telefone" style="ellipse;whiteSpace=wrap;html=1;align=center;rounded=0;sketch=0;" vertex="1" parent="1">
          <mxGeometry x="425" y="460" width="100" height="40" as="geometry" />
        </mxCell>
        <mxCell id="y4bybNNxTWJMV2I0ARmf-25" value="Data Nascimento" style="ellipse;whiteSpace=wrap;html=1;align=center;rounded=0;sketch=0;" vertex="1" parent="1">
          <mxGeometry x="300" y="450" width="100" height="40" as="geometry" />
        </mxCell>
        <mxCell id="y4bybNNxTWJMV2I0ARmf-27" value="" style="endArrow=none;html=1;rounded=0;sketch=0;curved=0;entryX=0;entryY=0.5;entryDx=0;entryDy=0;exitX=1;exitY=0.5;exitDx=0;exitDy=0;" edge="1" parent="1" source="y4bybNNxTWJMV2I0ARmf-23" target="y4bybNNxTWJMV2I0ARmf-19">
          <mxGeometry relative="1" as="geometry">
            <mxPoint x="340" y="210" as="sourcePoint" />
            <mxPoint x="500" y="210" as="targetPoint" />
          </mxGeometry>
        </mxCell>
        <mxCell id="y4bybNNxTWJMV2I0ARmf-31" value="Nome" style="ellipse;whiteSpace=wrap;html=1;align=center;rounded=0;sketch=0;fillColor=#7EA6E0;" vertex="1" parent="1">
          <mxGeometry x="160" y="420" width="100" height="40" as="geometry" />
        </mxCell>
        <mxCell id="y4bybNNxTWJMV2I0ARmf-32" value="" style="endArrow=none;html=1;rounded=0;sketch=0;curved=0;exitX=1;exitY=0.5;exitDx=0;exitDy=0;entryX=0;entryY=1;entryDx=0;entryDy=0;" edge="1" parent="1" source="y4bybNNxTWJMV2I0ARmf-31" target="y4bybNNxTWJMV2I0ARmf-19">
          <mxGeometry relative="1" as="geometry">
            <mxPoint x="350" y="220" as="sourcePoint" />
            <mxPoint x="510" y="220" as="targetPoint" />
          </mxGeometry>
        </mxCell>
        <mxCell id="y4bybNNxTWJMV2I0ARmf-33" value="" style="endArrow=none;html=1;rounded=0;sketch=0;curved=0;entryX=0.5;entryY=0;entryDx=0;entryDy=0;exitX=0.25;exitY=1;exitDx=0;exitDy=0;" edge="1" parent="1" source="y4bybNNxTWJMV2I0ARmf-19" target="y4bybNNxTWJMV2I0ARmf-25">
          <mxGeometry relative="1" as="geometry">
            <mxPoint x="360" y="230" as="sourcePoint" />
            <mxPoint x="520" y="230" as="targetPoint" />
          </mxGeometry>
        </mxCell>
        <mxCell id="y4bybNNxTWJMV2I0ARmf-34" value="" style="endArrow=none;html=1;rounded=0;sketch=0;curved=0;entryX=0.75;entryY=1;entryDx=0;entryDy=0;" edge="1" parent="1" source="y4bybNNxTWJMV2I0ARmf-24" target="y4bybNNxTWJMV2I0ARmf-19">
          <mxGeometry relative="1" as="geometry">
            <mxPoint x="370" y="240" as="sourcePoint" />
            <mxPoint x="530" y="240" as="targetPoint" />
          </mxGeometry>
        </mxCell>
        <mxCell id="y4bybNNxTWJMV2I0ARmf-35" value="Relação materna" style="shape=rhombus;perimeter=rhombusPerimeter;whiteSpace=wrap;html=1;align=center;rounded=0;sketch=0;" vertex="1" parent="1">
          <mxGeometry x="260" y="280" width="130" height="70" as="geometry" />
        </mxCell>
        <mxCell id="y4bybNNxTWJMV2I0ARmf-36" value="" style="endArrow=none;html=1;rounded=0;sketch=0;curved=0;exitX=1;exitY=0.5;exitDx=0;exitDy=0;entryX=0;entryY=0;entryDx=0;entryDy=0;" edge="1" parent="1" source="y4bybNNxTWJMV2I0ARmf-2" target="y4bybNNxTWJMV2I0ARmf-35">
          <mxGeometry relative="1" as="geometry">
            <mxPoint x="380" y="250" as="sourcePoint" />
            <mxPoint x="540" y="250" as="targetPoint" />
          </mxGeometry>
        </mxCell>
        <mxCell id="y4bybNNxTWJMV2I0ARmf-37" value="" style="endArrow=none;html=1;rounded=0;sketch=0;curved=0;exitX=0.5;exitY=0;exitDx=0;exitDy=0;" edge="1" parent="1" source="y4bybNNxTWJMV2I0ARmf-19" target="y4bybNNxTWJMV2I0ARmf-35">
          <mxGeometry relative="1" as="geometry">
            <mxPoint x="390" y="260" as="sourcePoint" />
            <mxPoint x="550" y="260" as="targetPoint" />
          </mxGeometry>
        </mxCell>
        <mxCell id="y4bybNNxTWJMV2I0ARmf-38" value="Médico" style="whiteSpace=wrap;html=1;align=center;rounded=0;sketch=0;" vertex="1" parent="1">
          <mxGeometry x="530" y="210" width="100" height="40" as="geometry" />
        </mxCell>
        <mxCell id="y4bybNNxTWJMV2I0ARmf-39" value="CRM,&lt;br&gt;nome, telefone celular e especialidade." style="text;html=1;align=center;verticalAlign=middle;resizable=0;points=[];autosize=1;strokeColor=none;fillColor=none;" vertex="1" parent="1">
          <mxGeometry x="370" y="45" width="260" height="30" as="geometry" />
        </mxCell>
        <mxCell id="y4bybNNxTWJMV2I0ARmf-40" value="CRM" style="ellipse;whiteSpace=wrap;html=1;align=center;rounded=0;sketch=0;fillColor=#7EA6E0;" vertex="1" parent="1">
          <mxGeometry x="440" y="100" width="100" height="40" as="geometry" />
        </mxCell>
        <mxCell id="y4bybNNxTWJMV2I0ARmf-41" value="Telefone" style="ellipse;whiteSpace=wrap;html=1;align=center;rounded=0;sketch=0;" vertex="1" parent="1">
          <mxGeometry x="550" y="85" width="100" height="40" as="geometry" />
        </mxCell>
        <mxCell id="y4bybNNxTWJMV2I0ARmf-42" value="Especialidade" style="ellipse;whiteSpace=wrap;html=1;align=center;rounded=0;sketch=0;" vertex="1" parent="1">
          <mxGeometry x="660" y="110" width="100" height="40" as="geometry" />
        </mxCell>
        <mxCell id="y4bybNNxTWJMV2I0ARmf-44" value="" style="endArrow=none;html=1;rounded=0;sketch=0;curved=0;entryX=0.25;entryY=0;entryDx=0;entryDy=0;exitX=1;exitY=1;exitDx=0;exitDy=0;" edge="1" parent="1" source="y4bybNNxTWJMV2I0ARmf-40" target="y4bybNNxTWJMV2I0ARmf-38">
          <mxGeometry relative="1" as="geometry">
            <mxPoint x="340" y="260" as="sourcePoint" />
            <mxPoint x="500" y="260" as="targetPoint" />
          </mxGeometry>
        </mxCell>
        <mxCell id="y4bybNNxTWJMV2I0ARmf-46" value="" style="endArrow=none;html=1;rounded=0;sketch=0;curved=0;entryX=0.5;entryY=0;entryDx=0;entryDy=0;exitX=0.5;exitY=1;exitDx=0;exitDy=0;" edge="1" parent="1" source="y4bybNNxTWJMV2I0ARmf-41" target="y4bybNNxTWJMV2I0ARmf-38">
          <mxGeometry relative="1" as="geometry">
            <mxPoint x="340" y="260" as="sourcePoint" />
            <mxPoint x="500" y="260" as="targetPoint" />
          </mxGeometry>
        </mxCell>
        <mxCell id="y4bybNNxTWJMV2I0ARmf-47" value="" style="endArrow=none;html=1;rounded=0;sketch=0;curved=0;entryX=0.75;entryY=0;entryDx=0;entryDy=0;exitX=0.09;exitY=0.875;exitDx=0;exitDy=0;exitPerimeter=0;" edge="1" parent="1" source="y4bybNNxTWJMV2I0ARmf-42" target="y4bybNNxTWJMV2I0ARmf-38">
          <mxGeometry relative="1" as="geometry">
            <mxPoint x="350" y="270" as="sourcePoint" />
            <mxPoint x="510" y="270" as="targetPoint" />
          </mxGeometry>
        </mxCell>
        <mxCell id="y4bybNNxTWJMV2I0ARmf-48" value="" style="endArrow=none;html=1;rounded=0;sketch=0;curved=0;entryX=0;entryY=0.5;entryDx=0;entryDy=0;exitX=1;exitY=0.5;exitDx=0;exitDy=0;" edge="1" parent="1" source="y4bybNNxTWJMV2I0ARmf-49" target="y4bybNNxTWJMV2I0ARmf-38">
          <mxGeometry relative="1" as="geometry">
            <mxPoint x="360" y="280" as="sourcePoint" />
            <mxPoint x="520" y="280" as="targetPoint" />
          </mxGeometry>
        </mxCell>
        <mxCell id="y4bybNNxTWJMV2I0ARmf-49" value="Bebê/Médico" style="shape=rhombus;perimeter=rhombusPerimeter;whiteSpace=wrap;html=1;align=center;rounded=0;sketch=0;" vertex="1" parent="1">
          <mxGeometry x="360" y="210" width="120" height="60" as="geometry" />
        </mxCell>
        <mxCell id="y4bybNNxTWJMV2I0ARmf-50" value="" style="endArrow=none;html=1;rounded=0;sketch=0;curved=0;exitX=1;exitY=0.25;exitDx=0;exitDy=0;entryX=0;entryY=0.5;entryDx=0;entryDy=0;" edge="1" parent="1" source="y4bybNNxTWJMV2I0ARmf-2" target="y4bybNNxTWJMV2I0ARmf-49">
          <mxGeometry relative="1" as="geometry">
            <mxPoint x="370" y="290" as="sourcePoint" />
            <mxPoint x="530" y="290" as="targetPoint" />
          </mxGeometry>
        </mxCell>
        <mxCell id="y4bybNNxTWJMV2I0ARmf-51" value="Nome Médico" style="ellipse;whiteSpace=wrap;html=1;align=center;dashed=1;rounded=0;sketch=0;fillColor=#FFFFFF;" vertex="1" parent="1">
          <mxGeometry x="260" y="170" width="100" height="40" as="geometry" />
        </mxCell>
        <mxCell id="y4bybNNxTWJMV2I0ARmf-52" value="" style="endArrow=none;html=1;rounded=0;sketch=0;curved=0;exitX=0.5;exitY=0;exitDx=0;exitDy=0;" edge="1" parent="1" source="y4bybNNxTWJMV2I0ARmf-51" target="y4bybNNxTWJMV2I0ARmf-53">
          <mxGeometry relative="1" as="geometry">
            <mxPoint x="340" y="260" as="sourcePoint" />
            <mxPoint x="310" y="120" as="targetPoint" />
          </mxGeometry>
        </mxCell>
        <mxCell id="y4bybNNxTWJMV2I0ARmf-53" value="CRM" style="ellipse;whiteSpace=wrap;html=1;align=center;rounded=0;sketch=0;fillColor=#FFFFFF;" vertex="1" parent="1">
          <mxGeometry x="260" y="100" width="100" height="40" as="geometry" />
        </mxCell>
        <mxCell id="y4bybNNxTWJMV2I0ARmf-54" value="Nome Mãe" style="ellipse;whiteSpace=wrap;html=1;align=center;dashed=1;rounded=0;sketch=0;fillColor=#FFFFFF;" vertex="1" parent="1">
          <mxGeometry x="10" y="85" width="100" height="60" as="geometry" />
        </mxCell>
        <mxCell id="y4bybNNxTWJMV2I0ARmf-55" value="" style="endArrow=none;html=1;rounded=0;sketch=0;curved=0;exitX=0.5;exitY=0;exitDx=0;exitDy=0;" edge="1" parent="1" source="y4bybNNxTWJMV2I0ARmf-54" target="y4bybNNxTWJMV2I0ARmf-56">
          <mxGeometry relative="1" as="geometry">
            <mxPoint x="340" y="240" as="sourcePoint" />
            <mxPoint x="60" y="60" as="targetPoint" />
          </mxGeometry>
        </mxCell>
        <mxCell id="y4bybNNxTWJMV2I0ARmf-56" value="Telefone Mãe" style="ellipse;whiteSpace=wrap;html=1;align=center;rounded=0;sketch=0;fillColor=#FFFFFF;" vertex="1" parent="1">
          <mxGeometry x="10" y="20" width="100" height="40" as="geometry" />
        </mxCell>
      </root>
    </mxGraphModel>
  </diagram>
</mxfile>
